<svg xmlns="http://www.w3.org/2000/svg" viewBox="0 0 390 520" fill="none">
  <defs>
    <linearGradient id="bg2" x1="0" y1="0" x2="1" y2="1">
      <stop offset="0%" stop-color="#f0faf7"/>
      <stop offset="100%" stop-color="#e6f4ef"/>
    </linearGradient>
    <linearGradient id="accent2" x1="0" y1="0" x2="1" y2="1">
      <stop offset="0%" stop-color="#10A37F"/>
      <stop offset="100%" stop-color="#0D8F6B"/>
    </linearGradient>
  </defs>

  <rect width="390" height="520" rx="20" fill="url(#bg2)"/>

  <!-- Source document (left) -->
  <rect x="40" y="50" width="130" height="170" rx="8" fill="white" stroke="#D1D5DB" stroke-width="1.2"/>
  <!-- Document text lines -->
  <rect x="54" y="70" width="80" height="5" rx="2.5" fill="#ccc"/>
  <rect x="54" y="82" width="100" height="5" rx="2.5" fill="#ccc"/>
  <rect x="54" y="94" width="70" height="5" rx="2.5" fill="#ccc"/>
  <rect x="54" y="106" width="90" height="5" rx="2.5" fill="#ccc"/>
  <rect x="54" y="118" width="60" height="5" rx="2.5" fill="#ccc"/>
  <!-- Watermark hint -->
  <text x="105" y="155" font-family="system-ui, sans-serif" font-size="20" fill="#e0e0e0" text-anchor="middle" transform="rotate(-25 105 155)" opacity="0.5">DRAFT</text>
  <!-- Stamp/seal hint -->
  <circle cx="130" cy="190" r="16" fill="none" stroke="#daa" stroke-width="1.5" opacity="0.4"/>
  <!-- Signature hint -->
  <path d="M56 195 Q66 182 76 195 Q86 208 96 192" fill="none" stroke="#999" stroke-width="1" opacity="0.4"/>

  <!-- Arrow -->
  <g opacity="0.6">
    <line x1="190" y1="135" x2="220" y2="135" stroke="#10A37F" stroke-width="2.5" stroke-linecap="round"/>
    <polyline points="215,129 222,135 215,141" fill="none" stroke="#10A37F" stroke-width="2.5" stroke-linecap="round" stroke-linejoin="round"/>
  </g>

  <!-- Translated document (right) -->
  <rect x="230" y="50" width="130" height="170" rx="8" fill="white" stroke="#10A37F" stroke-width="1.2" opacity="0.8"/>
  <!-- Translated text lines (green tint) -->
  <rect x="244" y="70" width="90" height="5" rx="2.5" fill="#10A37F" opacity="0.25"/>
  <rect x="244" y="82" width="100" height="5" rx="2.5" fill="#10A37F" opacity="0.25"/>
  <rect x="244" y="94" width="75" height="5" rx="2.5" fill="#10A37F" opacity="0.25"/>
  <rect x="244" y="106" width="95" height="5" rx="2.5" fill="#10A37F" opacity="0.25"/>
  <rect x="244" y="118" width="65" height="5" rx="2.5" fill="#10A37F" opacity="0.25"/>
  <!-- Same watermark preserved -->
  <text x="295" y="155" font-family="system-ui, sans-serif" font-size="20" fill="#10A37F" text-anchor="middle" transform="rotate(-25 295 155)" opacity="0.15">DRAFT</text>
  <!-- Same stamp preserved -->
  <circle cx="320" cy="190" r="16" fill="none" stroke="#daa" stroke-width="1.5" opacity="0.4"/>
  <!-- Same signature preserved -->
  <path d="M246 195 Q256 182 266 195 Q276 208 286 192" fill="none" stroke="#999" stroke-width="1" opacity="0.4"/>

  <!-- AI processing visual -->
  <circle cx="195" cy="310" r="40" fill="url(#accent2)" opacity="0.1"/>
  <circle cx="195" cy="310" r="28" fill="url(#accent2)" opacity="0.15"/>
  <!-- Globe icon -->
  <circle cx="195" cy="310" r="16" fill="none" stroke="#10A37F" stroke-width="2"/>
  <line x1="179" y1="310" x2="211" y2="310" stroke="#10A37F" stroke-width="1.2"/>
  <line x1="195" y1="294" x2="195" y2="326" stroke="#10A37F" stroke-width="1.2"/>
  <ellipse cx="195" cy="310" rx="8" ry="16" fill="none" stroke="#10A37F" stroke-width="1.2"/>

  <!-- Format icons -->
  <g opacity="0.45">
    <rect x="60" y="390" width="60" height="30" rx="8" fill="none" stroke="#10A37F" stroke-width="1.2"/>
    <text x="90" y="410" font-family="system-ui, sans-serif" font-size="11" fill="#10A37F" text-anchor="middle" font-weight="600">PDF</text>

    <rect x="135" y="390" width="60" height="30" rx="8" fill="none" stroke="#10A37F" stroke-width="1.2"/>
    <text x="165" y="410" font-family="system-ui, sans-serif" font-size="11" fill="#10A37F" text-anchor="middle" font-weight="600">DOCX</text>

    <rect x="210" y="390" width="60" height="30" rx="8" fill="none" stroke="#10A37F" stroke-width="1.2"/>
    <text x="240" y="410" font-family="system-ui, sans-serif" font-size="11" fill="#10A37F" text-anchor="middle" font-weight="600">PPTX</text>

    <rect x="285" y="390" width="60" height="30" rx="8" fill="none" stroke="#10A37F" stroke-width="1.2"/>
    <text x="315" y="410" font-family="system-ui, sans-serif" font-size="11" fill="#10A37F" text-anchor="middle" font-weight="600">IMG</text>
  </g>

  <!-- Caption -->
  <text x="195" y="470" font-family="system-ui, -apple-system, sans-serif" font-size="13" fill="#666" text-anchor="middle" opacity="0.6">AI-Powered Document Translation</text>
</svg>
